<?xml version="1.0" standalone="no"?>
<!DOCTYPE svg PUBLIC "-//W3C//DTD SVG 20010904//EN"
 "http://www.w3.org/TR/2001/REC-SVG-20010904/DTD/svg10.dtd">
<svg version="1.0" xmlns="http://www.w3.org/2000/svg"
 width="3480.000000pt" height="3480.000000pt" viewBox="0 0 3480.000000 3480.000000"
 preserveAspectRatio="xMidYMid meet">
<metadata>
Created by potrace 1.14, written by Peter Selinger 2001-2017
</metadata>
<g transform="translate(0.000000,3480.000000) scale(0.100000,-0.100000)"
fill="#000000" stroke="none">
<path d="M16052 32381 c-135 -46 -223 -166 -228 -309 -5 -134 34 -208 168
-318 46 -38 85 -71 88 -74 3 -3 82 -68 175 -145 94 -77 184 -152 200 -167 l30
-28 -30 -1 c-16 0 -38 -2 -47 -4 -9 -2 -57 -6 -107 -9 -49 -4 -98 -8 -108 -10
-10 -2 -54 -7 -97 -11 -43 -4 -86 -8 -95 -10 -9 -1 -43 -6 -76 -9 -33 -4 -87
-11 -120 -16 -33 -5 -82 -12 -110 -15 -27 -4 -57 -8 -65 -10 -8 -3 -38 -7 -66
-10 -28 -3 -61 -8 -75 -10 -13 -3 -76 -14 -139 -25 -141 -25 -129 -22 -347
-66 -98 -19 -196 -40 -218 -46 -22 -5 -47 -12 -55 -13 -149 -31 -518 -126
-700 -181 -171 -51 -376 -115 -395 -124 -11 -5 -42 -16 -70 -23 -160 -46 -757
-278 -1010 -392 -27 -13 -95 -43 -150 -68 -499 -224 -1110 -562 -1615 -895
-218 -144 -628 -435 -650 -462 -3 -3 -21 -17 -40 -30 -19 -14 -42 -30 -50 -37
-262 -208 -455 -368 -580 -480 -14 -12 -37 -32 -51 -45 -295 -261 -784 -749
-979 -978 -11 -14 -45 -52 -74 -85 -49 -55 -231 -272 -316 -376 -19 -23 -90
-115 -158 -203 -726 -941 -1302 -1979 -1730 -3111 -118 -313 -308 -906 -357
-1115 -2 -8 -26 -105 -54 -215 -41 -167 -106 -455 -125 -555 -2 -14 -11 -63
-20 -110 -22 -120 -26 -141 -32 -180 -2 -19 -7 -46 -10 -60 -8 -45 -13 -74
-18 -110 -3 -19 -12 -80 -20 -135 -9 -55 -18 -120 -21 -144 -3 -23 -7 -55 -9
-70 -5 -28 -16 -123 -21 -181 -2 -19 -6 -57 -9 -85 -6 -49 -11 -107 -21 -210
-2 -27 -7 -86 -10 -130 -4 -44 -8 -99 -10 -122 -27 -289 -27 -1277 0 -1571 2
-26 7 -83 10 -127 13 -179 29 -350 45 -470 5 -38 12 -99 16 -135 3 -36 7 -67
9 -70 1 -3 6 -30 9 -61 4 -31 8 -65 10 -75 2 -11 7 -41 10 -69 4 -27 16 -102
27 -165 11 -63 22 -128 24 -145 3 -16 7 -41 10 -55 13 -66 15 -77 19 -100 10
-59 59 -292 78 -370 11 -47 22 -96 24 -110 3 -14 32 -128 64 -255 163 -638
411 -1347 669 -1912 32 -71 73 -162 92 -203 47 -105 232 -470 314 -620 276
-508 637 -1068 975 -1514 71 -94 301 -383 346 -436 12 -14 54 -63 94 -110 328
-386 774 -842 1145 -1170 33 -29 76 -67 95 -84 19 -17 78 -67 130 -111 52 -44
97 -82 100 -85 3 -3 39 -32 80 -65 41 -33 77 -63 80 -66 11 -12 325 -252 442
-337 751 -544 1549 -994 2393 -1350 105 -44 240 -99 300 -122 61 -23 124 -48
140 -55 17 -7 100 -38 185 -68 699 -248 1463 -443 2160 -551 45 -8 155 -24
200 -30 19 -3 53 -8 75 -11 76 -11 180 -24 250 -30 39 -4 79 -9 90 -11 11 -2
51 -6 90 -10 38 -3 86 -7 105 -9 19 -2 78 -7 130 -10 52 -4 113 -9 135 -11 44
-3 212 -12 375 -19 151 -7 723 -7 870 0 248 11 492 26 620 39 25 3 77 8 115
12 149 14 253 25 273 29 9 1 44 6 77 9 85 10 462 67 535 81 33 6 127 24 165
30 424 75 1140 261 1575 410 58 20 112 38 120 40 63 17 475 174 700 268 587
242 1239 582 1810 942 151 95 451 297 555 374 245 181 326 241 379 283 33 27
68 54 76 61 48 38 219 175 240 193 14 12 63 54 110 94 378 322 851 784 1157
1130 147 168 199 228 328 385 81 99 155 189 164 200 116 142 452 612 611 855
84 129 137 214 262 423 81 136 148 249 148 251 0 2 17 35 38 73 164 292 419
811 528 1078 14 33 36 84 50 113 13 29 24 57 24 62 0 6 5 18 10 28 12 21 96
235 150 381 233 638 406 1263 529 1916 22 116 43 228 46 250 3 22 12 81 20
130 14 87 19 122 30 203 3 20 7 51 10 67 4 28 7 52 20 160 3 22 7 65 10 95 3
30 7 69 10 85 9 68 21 206 30 350 4 55 8 110 10 123 8 50 19 381 19 612 1 244
1 245 -25 300 -72 150 -225 228 -387 196 -80 -16 -166 -77 -217 -154 -42 -63
-53 -132 -55 -335 -1 -100 -3 -213 -5 -252 -6 -160 -16 -352 -20 -385 -2 -19
-7 -71 -10 -115 -5 -77 -11 -144 -20 -230 -2 -22 -7 -67 -10 -100 -4 -33 -8
-71 -10 -85 -2 -14 -7 -50 -10 -80 -14 -121 -58 -417 -75 -505 -6 -27 -12 -66
-14 -85 -3 -19 -10 -60 -16 -90 -6 -30 -13 -66 -15 -80 -19 -108 -87 -411
-126 -565 -38 -146 -36 -140 -49 -195 -6 -25 -27 -99 -46 -165 -20 -66 -47
-158 -60 -205 -90 -308 -320 -935 -434 -1185 -16 -36 -30 -67 -30 -70 0 -2
-14 -35 -31 -72 -18 -37 -45 -97 -62 -133 -57 -124 -236 -486 -280 -565 -24
-44 -63 -116 -87 -160 -50 -93 -202 -354 -235 -405 -12 -19 -57 -91 -100 -160
-152 -243 -320 -486 -521 -755 -148 -198 -153 -203 -247 -319 -32 -39 -64 -78
-70 -86 -29 -37 -191 -228 -216 -255 -15 -16 -70 -77 -122 -135 -253 -282
-630 -656 -899 -890 -41 -36 -77 -67 -80 -70 -6 -7 -269 -227 -290 -243 -34
-26 -115 -92 -120 -97 -10 -11 -287 -218 -415 -310 -122 -88 -377 -260 -510
-345 -33 -21 -76 -48 -95 -60 -41 -27 -255 -154 -357 -214 -40 -23 -74 -40
-77 -39 -2 2 -12 -4 -22 -13 -42 -36 -520 -281 -819 -419 -485 -224 -1169
-474 -1673 -611 -112 -30 -454 -117 -483 -122 -13 -3 -42 -9 -64 -15 -122 -32
-653 -131 -788 -148 -23 -3 -64 -9 -92 -14 -27 -5 -75 -12 -105 -15 -30 -4
-66 -8 -80 -10 -24 -3 -68 -9 -170 -20 -74 -8 -121 -13 -195 -20 -38 -3 -88
-8 -110 -10 -38 -4 -148 -12 -280 -20 -480 -29 -1199 -20 -1605 20 -25 2 -78
7 -118 10 -41 4 -81 8 -90 9 -9 2 -51 7 -92 11 -41 4 -88 8 -105 11 -16 2 -54
6 -84 10 -30 3 -64 8 -75 10 -11 2 -38 6 -61 9 -128 17 -160 22 -350 55 -200
34 -492 92 -590 117 -33 8 -72 17 -86 19 -21 4 -231 58 -494 129 -377 100
-1065 347 -1450 520 -33 15 -100 45 -150 67 -114 52 -525 254 -630 311 -44 23
-120 65 -170 92 -619 335 -1423 900 -1966 1382 -19 16 -61 54 -94 83 -657 584
-1294 1312 -1807 2065 -95 141 -308 471 -308 480 0 2 -13 23 -29 47 -16 24
-39 61 -51 83 -12 22 -31 56 -42 75 -12 19 -40 69 -63 110 -23 41 -52 93 -65
115 -93 165 -291 560 -390 780 -280 620 -497 1236 -658 1875 -55 216 -91 367
-98 408 -3 15 -20 104 -39 197 -19 94 -39 197 -44 230 -6 33 -13 74 -16 90 -4
25 -31 201 -49 330 -6 38 -23 174 -31 240 -3 28 -8 64 -10 80 -2 17 -7 62 -11
100 -3 39 -7 86 -9 105 -2 19 -7 76 -10 125 -4 50 -8 106 -10 125 -27 283 -27
1235 0 1530 2 19 6 78 10 130 3 52 8 113 10 135 3 22 7 69 10 105 4 36 8 76
10 90 2 14 6 50 10 80 3 30 10 87 15 125 6 39 12 90 15 114 3 23 7 55 9 70 3
14 8 46 11 71 5 36 36 222 60 355 3 22 35 191 40 215 43 216 153 660 229 920
70 242 240 750 286 855 5 11 41 101 81 200 64 161 132 319 214 500 43 95 261
533 300 605 140 253 180 324 270 475 198 332 544 842 722 1065 7 8 58 74 114
145 97 123 239 296 263 321 6 6 34 37 61 70 305 359 786 839 1175 1170 58 49
107 92 110 95 28 32 449 357 682 528 227 166 797 528 1033 656 39 20 75 41 80
45 29 22 530 276 706 358 417 195 1052 438 1449 554 19 6 53 17 75 24 37 12
245 70 284 79 9 2 41 11 71 20 97 28 429 105 625 145 161 33 246 48 465 85 46
8 95 15 125 19 17 2 77 11 135 19 58 9 132 18 165 22 33 4 76 8 95 11 81 9
118 13 180 19 123 12 145 14 240 20 l94 7 -29 -38 c-16 -22 -53 -68 -83 -104
-30 -36 -71 -85 -91 -109 -20 -24 -52 -63 -71 -86 -19 -24 -51 -62 -71 -86
-259 -313 -254 -305 -254 -439 1 -101 14 -140 71 -217 82 -109 253 -154 389
-102 55 20 141 93 195 164 9 11 62 76 119 145 142 173 144 175 371 450 111
135 209 254 218 265 9 11 69 83 132 160 63 77 117 142 121 145 3 3 20 34 37
70 82 170 36 330 -133 465 -27 22 -52 42 -55 45 -5 6 -263 218 -349 289 -25
20 -61 50 -80 67 -80 68 -708 581 -737 602 -70 49 -201 63 -292 33z"/>
<path d="M24095 29186 c-143 -45 -241 -167 -249 -311 -4 -89 27 -180 82 -242
16 -18 112 -94 213 -169 157 -117 426 -328 509 -400 14 -12 48 -41 75 -64 53
-45 153 -133 245 -214 266 -238 743 -720 900 -909 14 -17 34 -40 45 -51 11
-12 45 -50 75 -86 30 -36 58 -67 61 -70 3 -3 81 -98 173 -212 210 -263 202
-254 252 -283 47 -28 146 -54 184 -49 84 11 106 17 148 38 159 82 231 282 159
440 -30 64 -181 259 -423 546 -279 330 -673 739 -1025 1065 -86 79 -209 188
-299 265 -25 21 -56 48 -70 60 -14 12 -72 61 -130 109 -58 47 -112 92 -120 98
-183 151 -523 400 -580 425 -55 24 -169 31 -225 14z"/>
<path d="M16887 28534 c-1 -1 -34 -4 -74 -8 -242 -20 -499 -141 -673 -316
-141 -141 -227 -287 -295 -500 -115 -361 -318 -646 -605 -851 -95 -67 -320
-189 -350 -189 -9 0 -20 -4 -25 -8 -6 -5 -46 -21 -90 -36 -44 -15 -89 -32
-100 -37 -11 -4 -67 -27 -125 -50 -108 -42 -285 -118 -393 -168 -203 -94 -265
-117 -402 -150 -214 -52 -390 -59 -630 -26 -144 19 -293 70 -505 171 -166 79
-275 118 -365 130 -22 3 -58 9 -80 13 -58 10 -202 5 -298 -9 -178 -28 -379
-116 -520 -229 -123 -99 -847 -837 -899 -916 -155 -237 -216 -499 -183 -781 3
-32 8 -61 10 -64 2 -4 7 -22 10 -41 12 -67 55 -178 125 -322 128 -265 182
-480 183 -732 1 -167 -25 -354 -68 -480 -10 -27 -18 -54 -19 -60 -2 -5 -10
-27 -19 -49 -9 -21 -17 -41 -17 -43 0 -3 -16 -40 -36 -82 -31 -65 -114 -252
-158 -356 -30 -70 -88 -219 -137 -350 -111 -304 -223 -484 -423 -677 -78 -76
-215 -180 -299 -226 -23 -13 -52 -30 -63 -37 -35 -23 -207 -92 -307 -124 -267
-86 -469 -232 -616 -448 -109 -161 -169 -323 -188 -513 -9 -88 -9 -1130 1
-1203 24 -188 106 -389 221 -536 152 -196 328 -319 565 -395 47 -15 99 -34
115 -41 17 -7 41 -16 55 -20 91 -27 327 -167 435 -258 238 -201 382 -416 505
-751 80 -219 171 -441 258 -626 104 -225 133 -302 163 -445 11 -51 14 -73 29
-180 8 -63 5 -312 -5 -355 -3 -14 -7 -43 -10 -65 -16 -123 -82 -322 -156 -469
-120 -236 -163 -393 -162 -591 1 -226 62 -427 189 -624 46 -70 132 -162 473
-503 341 -341 431 -426 501 -471 149 -96 261 -142 420 -173 112 -22 310 -22
410 1 41 9 85 18 98 21 41 8 145 51 262 107 289 138 495 191 750 190 79 0 221
-10 261 -18 13 -3 38 -8 54 -11 127 -22 248 -63 415 -141 170 -79 437 -190
615 -255 105 -38 232 -89 282 -113 285 -134 529 -359 694 -639 27 -46 49 -86
49 -89 0 -3 15 -38 34 -79 18 -40 50 -125 71 -188 57 -172 104 -266 191 -380
141 -185 327 -316 553 -390 159 -52 209 -55 831 -54 506 1 599 4 685 25 22 5
48 11 58 14 158 37 370 160 496 286 64 64 151 171 151 185 0 4 6 15 14 23 28
32 85 159 136 306 79 230 140 349 258 504 197 260 446 437 792 560 63 23 123
46 132 51 10 6 23 10 29 10 6 0 25 6 42 14 18 8 88 38 157 66 109 45 229 99
417 186 28 13 57 24 63 24 5 0 18 4 28 9 25 14 136 46 222 65 114 24 204 32
336 30 129 -1 217 -11 329 -35 126 -27 213 -60 426 -160 233 -110 359 -142
559 -142 220 1 427 64 617 188 72 48 164 134 513 484 370 371 432 437 479 514
152 247 208 539 156 812 -19 99 -56 200 -129 355 -142 297 -189 483 -190 750
0 95 11 257 19 270 2 3 6 23 9 45 17 104 65 249 127 383 22 46 39 85 39 87 0
1 20 45 44 96 24 52 67 153 96 224 29 72 56 139 61 150 5 11 31 82 59 159 106
292 209 461 393 647 195 198 389 313 703 418 291 97 489 249 645 496 56 89
122 251 135 335 3 19 8 38 11 43 12 20 17 214 17 682 0 622 -1 632 -59 827
-19 64 -85 196 -136 270 -51 76 -50 74 -129 156 -135 139 -279 224 -510 302
-210 70 -364 149 -520 267 -66 49 -218 197 -260 252 -14 18 -35 45 -46 60 -37
45 -131 204 -164 277 -17 38 -61 148 -96 244 -36 96 -71 189 -79 205 -7 17
-36 85 -64 152 -28 67 -73 170 -102 230 -71 151 -129 299 -145 374 -44 206
-59 417 -40 579 11 97 43 238 75 332 29 85 45 122 137 313 185 385 151 810
-95 1155 -83 117 -834 864 -942 937 -291 198 -660 249 -993 137 -42 -14 -125
-50 -186 -80 -172 -84 -230 -107 -350 -140 -145 -40 -256 -55 -411 -58 -256
-6 -490 51 -780 187 -121 58 -309 138 -424 182 -38 15 -79 31 -90 36 -11 5
-76 29 -145 54 -271 100 -450 208 -619 375 -209 205 -334 411 -425 700 -15 47
-31 94 -36 105 -69 154 -92 194 -163 285 -103 131 -223 230 -382 315 -65 34
-236 91 -299 99 -27 4 -54 10 -60 13 -8 5 -1123 12 -1129 7z m1078 -698 c81
-21 137 -50 191 -99 73 -66 106 -123 154 -267 23 -69 54 -152 67 -185 33 -80
119 -252 144 -286 10 -15 19 -30 19 -32 0 -11 114 -173 174 -247 93 -117 280
-298 396 -384 198 -147 376 -243 625 -335 77 -29 149 -56 160 -61 11 -4 74
-29 140 -56 66 -26 217 -91 335 -144 268 -121 468 -189 630 -214 19 -3 44 -8
55 -10 20 -4 85 -12 170 -22 61 -6 322 -6 390 1 121 12 195 23 295 46 205 45
328 89 555 199 66 32 145 65 175 72 105 28 228 9 330 -50 26 -14 205 -186 421
-401 337 -337 379 -383 406 -441 48 -100 59 -191 36 -291 -6 -31 -46 -125 -86
-210 -133 -275 -200 -508 -232 -811 -8 -67 -9 -361 -2 -408 3 -19 8 -62 12
-95 9 -78 48 -259 76 -355 30 -105 77 -223 149 -380 107 -232 142 -317 246
-594 119 -316 202 -475 359 -684 91 -122 262 -299 380 -394 226 -182 469 -312
780 -416 119 -40 175 -73 231 -135 60 -67 100 -147 111 -227 15 -100 9 -1064
-6 -1120 -20 -72 -77 -165 -129 -210 -60 -54 -117 -82 -250 -126 -599 -198
-1084 -622 -1355 -1184 -30 -63 -80 -185 -112 -270 -72 -198 -173 -443 -242
-590 -30 -63 -66 -142 -79 -175 -14 -33 -29 -69 -33 -80 -29 -67 -87 -276
-105 -375 -22 -128 -25 -149 -32 -235 -12 -136 -7 -405 10 -490 2 -11 7 -42
10 -70 15 -102 75 -335 106 -410 4 -11 14 -36 21 -55 6 -19 47 -109 90 -200
89 -189 100 -233 86 -355 -8 -76 -32 -135 -82 -200 -54 -71 -725 -735 -778
-770 -66 -44 -184 -75 -258 -69 -82 7 -122 20 -264 89 -234 114 -452 185 -670
219 -56 8 -110 16 -160 21 -59 7 -355 8 -405 1 -19 -3 -60 -7 -90 -11 -222
-25 -458 -95 -702 -206 -294 -134 -404 -181 -668 -280 -380 -143 -634 -302
-885 -554 -254 -255 -431 -542 -553 -895 -27 -80 -61 -165 -73 -189 -45 -83
-154 -167 -264 -202 -50 -16 -1038 -22 -1125 -7 -50 9 -140 41 -165 60 -45 32
-109 98 -134 136 -16 26 -52 113 -80 193 -63 184 -118 305 -204 451 -152 256
-341 469 -598 673 -9 7 -65 45 -125 84 -142 94 -327 184 -539 261 -217 80
-403 156 -629 259 -220 101 -424 169 -581 195 -196 33 -235 36 -415 38 -232 2
-395 -21 -680 -96 -79 -21 -256 -94 -394 -163 -151 -75 -225 -89 -345 -68
-126 22 -169 56 -576 467 -256 257 -368 378 -388 414 -62 118 -69 273 -17 381
134 281 144 305 187 433 28 85 78 291 88 363 3 27 8 57 10 66 14 76 23 427 11
486 -2 11 -7 47 -10 80 -26 229 -94 469 -194 685 -136 295 -208 466 -303 725
-163 444 -425 801 -784 1069 -218 163 -417 266 -698 360 -162 54 -242 112
-302 220 -60 108 -62 125 -60 701 1 553 2 560 51 658 55 108 148 180 297 228
267 88 492 201 687 344 287 210 524 487 685 799 56 109 79 164 150 356 80 214
145 371 230 555 13 28 38 82 56 120 64 140 138 372 163 515 5 32 15 87 21 125
18 103 23 323 12 480 -9 129 -11 142 -43 305 -19 97 -89 327 -105 345 -5 5 -9
15 -9 23 0 7 -36 89 -79 180 -43 92 -83 188 -88 213 -22 106 3 229 66 324 23
36 185 205 402 421 323 320 372 365 431 394 75 36 114 44 208 44 82 0 130 -16
310 -103 169 -81 356 -147 497 -176 212 -43 252 -48 473 -49 230 -1 294 3 435
28 203 36 371 92 640 213 220 99 321 143 365 158 11 4 66 26 85 34 11 5 56 22
100 39 44 16 114 42 155 57 143 53 325 149 465 243 409 278 720 690 883 1168
27 78 62 166 79 196 55 97 163 176 278 204 75 18 1062 18 1130 0z"/>
<path d="M17158 25155 c-2 -1 -59 -5 -128 -9 -69 -3 -136 -8 -150 -10 -14 -2
-54 -7 -90 -10 -36 -4 -81 -8 -100 -11 -19 -2 -57 -7 -85 -10 -27 -3 -72 -10
-100 -15 -74 -14 -215 -39 -254 -45 -29 -5 -221 -50 -365 -86 -21 -5 -91 -25
-155 -45 -421 -127 -825 -301 -1232 -531 -239 -136 -548 -352 -804 -562 -224
-184 -467 -424 -704 -696 -97 -111 -261 -327 -373 -490 -74 -107 -238 -370
-238 -380 0 -3 -12 -24 -27 -48 -119 -188 -333 -669 -437 -981 -53 -159 -140
-464 -152 -536 -3 -14 -7 -33 -10 -42 -3 -9 -6 -25 -8 -35 -5 -29 -19 -97 -22
-108 -7 -29 -54 -308 -59 -355 -4 -30 -8 -66 -10 -80 -2 -14 -7 -56 -11 -95
-3 -38 -8 -78 -9 -87 -24 -127 -24 -814 0 -1018 3 -19 7 -60 10 -90 42 -411
131 -819 264 -1220 175 -523 399 -979 699 -1420 73 -108 216 -305 232 -320 3
-3 32 -39 65 -80 437 -548 1085 -1091 1695 -1418 406 -218 786 -374 1200 -492
74 -21 146 -43 160 -48 26 -11 130 -37 189 -47 19 -3 37 -8 41 -10 3 -2 46
-11 95 -19 50 -9 101 -18 115 -21 13 -2 42 -7 65 -10 22 -4 51 -8 65 -10 70
-11 90 -14 145 -20 33 -3 67 -8 75 -10 8 -2 58 -7 110 -10 52 -4 115 -8 140
-10 247 -20 578 -20 805 0 39 3 99 8 135 10 36 3 79 7 95 10 17 2 57 7 90 10
60 6 98 11 145 20 14 2 45 7 70 10 25 4 90 15 145 26 55 10 111 21 125 24 113
21 237 56 575 165 1040 334 1974 973 2674 1828 197 240 330 430 516 737 81
134 224 415 318 625 42 95 153 390 195 520 98 303 193 718 227 990 2 19 6 51
9 70 3 19 8 62 11 95 3 33 8 76 10 95 15 142 20 263 20 525 0 262 -5 382 -20
525 -2 19 -6 64 -10 100 -7 78 -14 136 -20 170 -2 14 -7 45 -10 70 -3 25 -8
56 -10 70 -3 14 -7 39 -10 55 -5 33 -12 66 -20 105 -8 36 -14 71 -20 105 -30
169 -191 720 -245 840 -5 11 -23 54 -39 95 -210 537 -516 1058 -899 1530 -329
404 -772 812 -1197 1101 -44 30 -81 57 -83 62 -2 4 -8 7 -14 7 -5 0 -28 13
-51 29 -114 77 -349 212 -522 298 -113 57 -147 73 -289 138 -168 77 -560 216
-761 271 -83 22 -324 81 -370 90 -135 26 -184 35 -330 59 -16 3 -68 10 -115
15 -47 6 -96 13 -110 15 -14 2 -65 6 -115 10 -49 4 -108 9 -130 11 -43 5 -612
13 -617 9z m602 -689 c36 -3 92 -8 125 -11 78 -7 296 -35 315 -40 8 -2 33 -6
55 -10 267 -39 685 -155 1000 -277 200 -78 543 -242 673 -321 63 -39 76 -46
107 -63 97 -54 367 -241 515 -357 289 -227 635 -574 869 -872 34 -44 69 -88
77 -97 25 -32 219 -321 266 -398 120 -195 291 -540 381 -770 127 -323 227
-675 276 -965 6 -33 13 -73 16 -90 2 -16 8 -50 11 -75 3 -25 8 -53 9 -62 2 -9
7 -48 10 -85 4 -37 8 -79 11 -93 19 -113 27 -704 11 -882 -50 -585 -173 -1088
-395 -1613 -53 -125 -210 -445 -256 -520 -17 -28 -36 -59 -43 -70 -7 -11 -26
-44 -43 -73 -70 -121 -305 -453 -392 -554 -13 -14 -32 -37 -42 -50 -76 -92
-152 -174 -289 -313 -250 -254 -492 -454 -787 -652 -103 -68 -287 -183 -295
-183 -2 0 -28 -14 -57 -31 -114 -67 -360 -187 -528 -256 -73 -31 -266 -103
-274 -103 -1 0 -2 331 -2 735 0 404 3 735 8 735 4 0 49 25 100 56 51 31 109
66 128 77 39 23 262 177 270 186 3 3 28 24 55 46 161 129 354 316 479 465 39
47 79 93 88 104 33 36 177 242 239 340 253 404 444 932 504 1396 3 19 7 44 9
55 12 63 21 238 21 435 0 231 -7 343 -29 500 -3 19 -8 55 -11 80 -4 25 -10 63
-15 85 -5 22 -11 55 -15 73 -13 76 -77 306 -118 427 -58 170 -104 280 -186
445 -59 117 -204 370 -232 404 -5 6 -43 58 -85 115 -41 57 -81 110 -87 117 -7
8 -16 20 -22 27 -180 224 -450 477 -681 642 -43 31 -86 61 -94 68 -8 7 -50 33
-93 59 -103 64 -180 82 -271 65 -110 -19 -200 -89 -253 -195 l-28 -57 -2
-1439 -3 -1439 -23 -51 c-31 -65 -68 -103 -135 -133 l-52 -25 -1145 0 c-861 1
-1155 4 -1183 13 -75 24 -144 91 -168 163 -15 45 -17 177 -17 1459 0 1011 -3
1422 -11 1451 -43 155 -178 258 -340 257 -90 0 -161 -34 -361 -175 -55 -38
-102 -72 -105 -75 -3 -4 -39 -33 -80 -66 -109 -86 -150 -124 -298 -275 -167
-170 -183 -188 -330 -380 -28 -36 -172 -249 -172 -254 0 -2 -18 -34 -40 -70
-116 -191 -276 -555 -336 -766 -11 -40 -75 -287 -78 -305 -18 -94 -37 -199
-41 -240 -4 -27 -8 -60 -10 -72 -20 -126 -28 -598 -12 -748 43 -407 128 -742
277 -1092 61 -141 154 -327 215 -423 99 -159 202 -307 295 -424 254 -321 619
-630 1008 -855 l97 -57 0 -732 c0 -728 0 -732 -20 -726 -56 17 -285 109 -395
159 -1085 490 -1968 1352 -2488 2428 -187 387 -350 880 -417 1264 -8 48 -17
97 -19 108 -2 11 -7 42 -10 68 -4 27 -9 58 -11 69 -2 11 -7 46 -10 79 -4 33
-8 69 -10 80 -2 11 -7 61 -11 112 -3 51 -8 108 -10 127 -5 46 -5 551 0 610 15
183 18 211 32 325 9 75 18 137 50 320 29 171 102 449 174 665 52 156 169 452
205 520 8 14 46 90 85 170 157 315 352 616 599 920 106 130 150 181 276 310
531 549 1158 961 1872 1231 102 39 324 114 368 124 11 3 81 21 155 40 74 19
144 37 155 39 11 2 41 9 68 15 26 6 64 14 83 17 20 3 46 8 58 10 28 5 131 22
181 29 22 3 49 7 60 10 11 2 52 7 90 10 39 4 80 8 92 10 13 2 73 7 135 10 62
4 114 8 116 10 5 4 531 -3 592 -9z m-2410 -4262 c1 -1029 1 -1062 21 -1154 44
-201 128 -353 273 -494 136 -131 331 -229 503 -253 32 -4 600 -8 1263 -8 1268
0 1247 -1 1389 45 344 110 608 439 645 805 3 22 5 510 6 1085 l1 1045 65 -70
c288 -307 520 -699 642 -1085 29 -93 53 -175 58 -195 1 -5 11 -53 22 -105 11
-52 23 -113 26 -135 4 -23 8 -52 11 -65 3 -13 7 -54 11 -90 3 -36 7 -83 10
-105 11 -107 4 -427 -12 -535 -3 -19 -7 -55 -10 -80 -7 -60 -30 -173 -59 -295
-156 -645 -554 -1240 -1097 -1637 -134 -99 -245 -167 -418 -256 -170 -88 -199
-108 -240 -167 -66 -97 -63 -32 -64 -1097 -1 -531 -3 -969 -6 -972 -9 -8 -270
-51 -380 -61 -36 -4 -76 -8 -90 -11 -165 -26 -828 -26 -1050 1 -19 2 -55 6
-80 9 -58 7 -192 26 -221 31 -13 3 -39 7 -59 10 -19 3 -51 9 -70 13 l-35 8 -1
964 c-2 1067 2 1009 -66 1107 -39 58 -69 79 -239 165 -303 156 -547 333 -773
563 -57 58 -195 217 -239 276 -58 76 -177 256 -177 267 0 6 -3 12 -8 14 -9 4
-61 100 -118 218 -113 234 -194 484 -240 735 -26 141 -31 186 -40 320 -16 244
-4 482 37 707 5 32 12 70 15 85 34 187 137 485 240 694 71 144 235 413 274
449 3 3 18 23 35 45 16 22 34 45 40 52 5 6 28 33 50 59 61 73 148 165 151 161
2 -2 4 -480 4 -1063z"/>
<path d="M27684 25012 c-133 -39 -229 -158 -241 -299 -8 -88 5 -128 110 -340
89 -182 146 -303 185 -394 79 -183 125 -243 221 -287 135 -62 290 -35 389 70
64 67 89 122 99 218 7 71 -8 122 -84 290 -14 30 -32 71 -40 90 -9 19 -69 143
-133 276 -149 305 -191 352 -341 383 -64 13 -101 12 -165 -7z"/>
<path d="M28656 22353 c-105 -31 -191 -115 -225 -218 -29 -89 -27 -117 18
-328 34 -158 88 -437 106 -547 3 -19 7 -46 10 -60 2 -14 7 -43 10 -65 3 -22 7
-51 10 -65 9 -49 28 -195 41 -305 15 -129 63 -219 150 -281 220 -157 531 -4
537 264 1 63 -9 189 -18 222 -2 8 -7 35 -10 60 -7 61 -14 118 -20 149 -2 14
-15 96 -29 181 -31 186 -29 173 -71 385 -63 318 -82 391 -112 448 -74 135
-248 205 -397 160z"/>
</g>
</svg>
