
        <svg xmlns="http://www.w3.org/2000/svg" xmlns:xlink="http://www.w3.org/1999/xlink" version="1.1" width="2880.0000000000005" height="3480" viewBox="0 0 2880.0000000000005 3480">
			
			<g transform="scale(24) translate(10, 10)">
				<defs id="SvgjsDefs3613"/><g id="SvgjsG3614" featureKey="symbolFeature-0" transform="matrix(1.102171236637103,0,0,1.102171236637103,-1.8086621153359572,-0.25479325911947226)" fill="#fff"><path xmlns="http://www.w3.org/2000/svg" d="M41.17,17.822l-.074.225A6.031,6.031,0,0,1,37.247,22a29.166,29.166,0,0,0-2.759,1.143,6.042,6.042,0,0,1-5.518-.079l-.2-.1a4.256,4.256,0,0,0-5.01.794l-2.451,2.451a4.252,4.252,0,0,0-.794,5.007l.1.206a6.039,6.039,0,0,1,.076,5.515,29.223,29.223,0,0,0-1.142,2.76,6.043,6.043,0,0,1-3.964,3.851l-.206.069a4.249,4.249,0,0,0-2.983,4.1l0,3.469a4.252,4.252,0,0,0,2.976,4.1l.225.074a6.039,6.039,0,0,1,3.953,3.849A28.816,28.816,0,0,0,20.7,61.969a6.04,6.04,0,0,1-.078,5.518l-.1.2a4.246,4.246,0,0,0,.793,5.008l2.451,2.452a4.247,4.247,0,0,0,5,.8l.211-.1a6.038,6.038,0,0,1,5.513-.076A28.651,28.651,0,0,0,37.247,76.9,6.04,6.04,0,0,1,41.1,80.864l.069.21a4.252,4.252,0,0,0,4.1,2.984h3.466a4.246,4.246,0,0,0,4.1-2.974l.075-.227a6.033,6.033,0,0,1,3.85-3.954,29.612,29.612,0,0,0,2.759-1.142,6.038,6.038,0,0,1,5.516.077l.2.1a4.248,4.248,0,0,0,5.01-.793L72.7,72.694a4.25,4.25,0,0,0,.794-5.008l-.1-.2a6.041,6.041,0,0,1-.078-5.513,28.225,28.225,0,0,0,1.144-2.761,6.042,6.042,0,0,1,3.959-3.851l.215-.07a4.249,4.249,0,0,0,2.98-4.1V47.718a4.247,4.247,0,0,0-2.972-4.1l-.227-.075a6.034,6.034,0,0,1-3.954-3.849,28.5,28.5,0,0,0-1.144-2.761,6.039,6.039,0,0,1,.076-5.512l.1-.2a4.248,4.248,0,0,0-.794-5.01l-2.451-2.453a4.255,4.255,0,0,0-5.01-.792l-.2.1a6.043,6.043,0,0,1-5.514.076A29.223,29.223,0,0,0,56.763,22a6.034,6.034,0,0,1-3.852-3.957l-.07-.216a4.25,4.25,0,0,0-4.1-2.981H45.271A4.249,4.249,0,0,0,41.17,17.822Zm9.2.811.07.215a8.655,8.655,0,0,0,5.453,5.6,26.821,26.821,0,0,1,2.512,1.041,8.656,8.656,0,0,0,7.809-.108l.2-.1a1.67,1.67,0,0,1,1.994.315l2.452,2.451a1.673,1.673,0,0,1,.317,1.993l-.105.2a8.663,8.663,0,0,0-.107,7.808,26.231,26.231,0,0,1,1.04,2.512,8.654,8.654,0,0,0,5.594,5.45l.225.075a1.669,1.669,0,0,1,1.186,1.632v3.467a1.67,1.67,0,0,1-1.191,1.633l-.215.071a8.658,8.658,0,0,0-5.6,5.452,26.357,26.357,0,0,1-1.04,2.511,8.661,8.661,0,0,0,.107,7.81l.1.2a1.675,1.675,0,0,1-.316,1.994l-2.451,2.451a1.673,1.673,0,0,1-2,.315l-.2-.1a8.666,8.666,0,0,0-7.808-.108A26.7,26.7,0,0,1,55.9,74.455a8.652,8.652,0,0,0-5.45,5.593l-.075.225a1.67,1.67,0,0,1-1.633,1.187H45.271a1.675,1.675,0,0,1-1.635-1.2l-.07-.209a8.657,8.657,0,0,0-5.451-5.6A26.33,26.33,0,0,1,35.6,73.415a8.65,8.65,0,0,0-7.8.1l-.211.105A1.675,1.675,0,0,1,25.6,73.31l-2.451-2.452a1.673,1.673,0,0,1-.313-2l.1-.2a8.665,8.665,0,0,0,.107-7.809A26.012,26.012,0,0,1,22,58.341a8.655,8.655,0,0,0-5.593-5.45l-.224-.075A1.672,1.672,0,0,1,15,51.186l0-3.468a1.672,1.672,0,0,1,1.2-1.635l.207-.069a8.662,8.662,0,0,0,5.6-5.45,26.561,26.561,0,0,1,1.041-2.513h0a8.659,8.659,0,0,0-.105-7.806l-.105-.206a1.673,1.673,0,0,1,.315-2l2.451-2.45a1.679,1.679,0,0,1,2-.313l.2.1a8.665,8.665,0,0,0,7.809.108,26.589,26.589,0,0,1,2.511-1.041,8.644,8.644,0,0,0,5.449-5.594l.075-.223a1.67,1.67,0,0,1,1.632-1.187h3.466A1.672,1.672,0,0,1,50.372,18.633ZM31.544,64.912a21.7,21.7,0,0,0,9.9,5.656,1.352,1.352,0,0,0,.174.077,22.125,22.125,0,0,0,3.272.557l.034,0c.691.065,1.385.108,2.079.108s1.386-.043,2.077-.108l.038,0a22,22,0,0,0,3.269-.556,1.321,1.321,0,0,0,.172-.076,21.844,21.844,0,1,0-21.017-5.657Zm10.931-4.843a10.982,10.982,0,0,1-3.216-17.783v7.7a3.589,3.589,0,0,0,3.588,3.584h8.317a3.588,3.588,0,0,0,3.586-3.584v-7.7a10.984,10.984,0,0,1-3.216,17.784,1.3,1.3,0,0,0-.763,1.183v7.083a19.432,19.432,0,0,1-7.534,0V61.252A1.3,1.3,0,0,0,42.475,60.069ZM60.629,35.828a19.22,19.22,0,0,1-7.26,31.782V62.06a13.576,13.576,0,0,0,.766-23.543,1.3,1.3,0,0,0-1.983,1.1V49.986a.989.989,0,0,1-.988.987H42.847a.991.991,0,0,1-.991-.987V39.621a1.3,1.3,0,0,0-1.982-1.1A13.576,13.576,0,0,0,40.64,62.06v5.549A19.256,19.256,0,1,1,60.629,35.828Zm31.74,13.623A45.364,45.364,0,1,1,43.563,4.231L41.448,2.485a1.3,1.3,0,0,1,1.655-2l4.728,3.9c.017.014.023.034.039.048a1.267,1.267,0,0,1,.169.209,1.238,1.238,0,0,1,.132.2,1.356,1.356,0,0,1,.066.222,1.375,1.375,0,0,1,.054.267c0,.022.012.039.012.061a1.248,1.248,0,0,1-.035.172,1.243,1.243,0,0,1-.053.262,1.214,1.214,0,0,1-.127.239,1.248,1.248,0,0,1-.082.153l-3.9,4.732a1.3,1.3,0,0,1-2-1.653l2.063-2.5A42.762,42.762,0,1,0,89.771,49.451a1.3,1.3,0,0,1,2.6,0ZM90.112,38.167a1.3,1.3,0,0,1,1.083.993,45.268,45.268,0,0,1,.858,4.92,1.539,1.539,0,0,1,0,.263,1.3,1.3,0,0,1-2.585.041,43.1,43.1,0,0,0-.807-4.637A1.3,1.3,0,0,1,90.112,38.167ZM71.554,14.3a1.3,1.3,0,0,1,1.869-1.727A45.734,45.734,0,0,1,83.047,21.9a1.3,1.3,0,0,1-2.06,1.583,43.106,43.106,0,0,0-9.078-8.8A1.286,1.286,0,0,1,71.554,14.3ZM85.1,29.988a1.329,1.329,0,0,1-.136-.441,1.3,1.3,0,0,1,2.445-.747c.439.85.854,1.73,1.233,2.609a1.3,1.3,0,1,1-2.382,1.035C85.9,31.613,85.507,30.8,85.1,29.988Z"/></g><g id="SvgjsG3615" featureKey="textGroupContainer" transform="matrix(1,0,0,1,50,124)" fill="#fff"><rect xmlns="http://www.w3.org/2000/svg" y="0" height="1" width="1" opacity="0"/><rect xmlns="http://www.w3.org/2000/svg" y="0" x="-35" width="3" height="0"/></g><g id="SvgjsG3616" featureKey="vMvB0T-0" transform="matrix(0.75,0,0,0.75,51,125)" fill="#fff"><path d=""/></g>
			</g>
		</svg>
	