<?xml version="1.0" standalone="no"?>
<!DOCTYPE svg PUBLIC "-//W3C//DTD SVG 20010904//EN"
 "http://www.w3.org/TR/2001/REC-SVG-20010904/DTD/svg10.dtd">
<svg version="1.0" xmlns="http://www.w3.org/2000/svg"
 width="3375.000000pt" height="3375.000000pt" viewBox="0 0 3375.000000 3375.000000"
 preserveAspectRatio="xMidYMid meet">
<metadata>
Created by potrace 1.14, written by Peter Selinger 2001-2017
</metadata>
<g transform="translate(0.000000,3375.000000) scale(0.100000,-0.100000)"
fill="#000000" stroke="none">
<path d="M5410 31859 c-281 -32 -579 -139 -812 -292 -119 -77 -220 -161 -324
-269 -285 -295 -454 -649 -509 -1063 -13 -103 -15 -1465 -15 -12416 0 -8562 3
-12329 11 -12397 66 -614 430 -1152 979 -1449 106 -57 287 -128 407 -158 241
-61 160 -58 1706 -62 l1417 -4 0 5690 0 5691 513 0 512 0 24 -67 c41 -119 161
-413 227 -560 35 -77 64 -145 64 -149 0 -5 -197 -206 -439 -449 -434 -436
-439 -441 -479 -525 -56 -118 -76 -218 -69 -339 9 -145 54 -268 137 -376 22
-27 697 -707 1502 -1510 1111 -1109 1477 -1469 1521 -1494 135 -79 295 -112
438 -91 100 14 214 56 289 106 30 21 246 227 480 460 l425 422 85 -40 c137
-64 322 -141 513 -214 l177 -67 0 -607 c0 -572 1 -611 20 -684 62 -243 243
-425 490 -492 61 -17 184 -18 2170 -15 2320 3 2164 -2 2304 67 136 66 244 177
312 319 62 130 64 146 64 812 l0 601 48 18 c222 82 433 168 626 256 l109 50
441 -440 c433 -432 442 -440 526 -481 109 -52 194 -73 300 -74 117 0 189 17
300 70 l95 45 1501 1501 c1158 1158 1508 1515 1532 1557 17 30 43 91 58 135
23 67 27 98 28 190 1 163 -35 280 -128 408 -25 34 -229 246 -454 471 l-410
408 54 119 c72 159 171 397 224 542 l43 117 594 0 c659 0 684 2 818 64 175 82
299 222 363 411 l27 80 3 2080 c2 1420 -1 2102 -8 2149 -42 272 -236 490 -496
556 -73 19 -113 20 -688 20 l-612 0 -48 133 c-58 156 -154 389 -225 542 l-50
110 443 445 c417 419 445 449 479 520 53 109 71 188 71 305 1 124 -13 184 -71
305 l-45 95 -1496 1496 -1497 1497 -95 46 c-208 102 -403 102 -610 0 l-95 -47
-435 -433 c-240 -239 -439 -434 -443 -434 -3 0 -72 29 -151 65 -148 66 -437
183 -558 226 l-67 24 -3 630 -3 630 -29 84 c-72 204 -223 354 -431 428 l-80
28 -2130 0 -2130 0 -75 -23 c-116 -36 -195 -85 -287 -177 -64 -65 -90 -100
-122 -167 -70 -145 -71 -148 -71 -828 l0 -605 -83 -29 c-116 -40 -366 -142
-545 -221 l-153 -68 -437 434 c-306 304 -454 444 -494 467 -95 56 -190 83
-308 89 -133 6 -223 -12 -339 -68 l-86 -42 -1507 -1506 -1506 -1506 -40 -85
c-58 -123 -66 -158 -66 -305 0 -115 3 -139 26 -206 54 -154 70 -173 531 -636
l430 -432 -72 -160 c-73 -164 -194 -464 -225 -558 l-18 -53 -514 0 -514 0 0
5685 0 5685 -1392 -1 c-766 -1 -1427 -5 -1468 -10z m12802 -6556 l3 -548 27
-73 c39 -107 83 -177 168 -262 98 -99 166 -133 415 -210 432 -134 852 -308
1211 -503 77 -42 175 -87 217 -102 186 -62 395 -36 567 73 33 20 202 180 420
398 l365 364 945 -945 944 -944 -24 -26 -23 -25 -6577 0 -6577 0 -21 23 -22
23 936 942 c515 518 941 942 947 942 6 0 178 -166 382 -369 302 -301 382 -375
435 -404 144 -79 312 -104 467 -72 73 15 129 40 357 156 443 225 769 357 1199
485 172 51 265 101 357 194 84 84 129 154 168 262 l27 73 3 535 c1 294 4 541
7 548 3 9 280 12 1339 12 l1335 0 3 -547z m-2432 -4148 c0 -3 -299 -604 -665
-1335 l-665 -1330 -2805 0 -2805 0 0 330 0 330 518 0 c484 0 524 1 596 20 185
47 342 171 430 340 19 36 55 133 80 215 129 426 245 716 464 1157 l137 277
2358 1 c1296 0 2357 -2 2357 -5z m2680 0 c0 -3 -300 -606 -667 -1340 l-668
-1335 -587 0 c-324 0 -588 2 -588 5 0 3 300 606 667 1340 l668 1335 587 0
c324 0 588 -2 588 -5z m4230 -22 c6 -16 64 -134 129 -263 190 -375 334 -730
450 -1111 28 -91 59 -187 70 -212 69 -162 229 -305 405 -364 l81 -28 538 -3
537 -3 0 -334 0 -335 -3135 0 c-1724 0 -3135 2 -3135 5 0 3 300 606 667 1340
l668 1335 1358 0 1357 0 10 -27z m2210 -4322 l0 -329 -527 -5 c-584 -4 -577
-4 -718 -73 -93 -45 -173 -111 -230 -187 -66 -87 -97 -153 -140 -297 -134
-450 -321 -904 -523 -1278 -109 -201 -127 -261 -127 -427 1 -114 4 -139 27
-203 50 -139 73 -167 463 -560 l370 -372 -945 -945 -945 -945 -350 348 c-192
192 -368 362 -390 379 -47 36 -140 84 -210 108 -30 11 -94 20 -162 23 -155 6
-229 -12 -385 -94 -490 -258 -863 -412 -1368 -564 -225 -68 -362 -174 -455
-352 -73 -138 -75 -158 -75 -740 l0 -518 -1340 0 -1340 0 0 518 c0 480 -1 524
-19 594 -49 192 -174 349 -346 436 -33 16 -150 58 -259 92 -403 124 -724 256
-1121 459 -137 70 -272 135 -300 144 -172 57 -382 34 -545 -60 -50 -29 -149
-121 -435 -405 l-370 -368 -943 943 -942 942 301 300 c166 165 334 337 373
382 128 144 186 290 186 468 0 145 -22 209 -163 486 -224 435 -343 730 -501
1241 -37 117 -56 162 -96 222 -66 98 -156 178 -255 227 -151 75 -129 72 -722
76 l-533 4 0 330 0 329 8030 0 8030 0 0 -329z"/>
<path d="M11346 20474 c-128 -31 -273 -123 -353 -223 -169 -213 -200 -486 -82
-730 34 -70 58 -102 128 -172 145 -145 302 -206 506 -196 179 8 323 73 452
204 124 126 187 285 186 468 0 188 -62 336 -198 471 -89 89 -194 150 -310 179
-74 19 -249 18 -329 -1z"/>
<path d="M13355 20474 c-417 -104 -628 -581 -428 -967 57 -110 182 -232 294
-286 196 -94 404 -95 594 -2 238 116 377 337 377 601 1 116 -19 197 -73 309
-72 147 -228 280 -389 333 -86 28 -287 34 -375 12z"/>
<path d="M14075 16466 c-94 -18 -170 -48 -246 -97 -77 -49 -1455 -1419 -1525
-1515 -151 -210 -165 -488 -37 -724 30 -55 144 -174 782 -811 l746 -747 95
-45 c121 -58 181 -72 305 -71 189 0 329 58 466 194 70 69 94 101 127 170 56
114 73 185 73 305 0 120 -17 191 -72 305 -41 84 -47 91 -516 561 l-474 476
426 418 c501 493 541 539 594 679 33 89 42 142 42 246 -1 183 -63 333 -195
465 -159 160 -381 232 -591 191z"/>
<path d="M17425 16466 c-102 -20 -178 -52 -264 -110 -151 -103 -114 -38 -890
-1586 -547 -1090 -706 -1416 -721 -1476 -41 -159 -19 -342 57 -487 54 -102
173 -220 278 -274 109 -56 189 -76 310 -77 122 -1 184 13 300 69 107 52 195
127 258 223 25 37 355 688 735 1447 770 1542 729 1447 719 1644 -8 181 -65
308 -197 441 -151 152 -381 225 -585 186z"/>
<path d="M19455 16469 c-149 -23 -271 -84 -381 -194 -133 -132 -194 -280 -194
-470 0 -121 16 -192 71 -305 41 -84 47 -91 515 -560 l473 -475 -473 -475
c-467 -469 -474 -476 -515 -560 -55 -113 -71 -184 -71 -305 0 -121 17 -192 69
-300 174 -356 625 -479 962 -264 88 56 1472 1436 1533 1529 139 210 153 448
40 680 l-46 95 -731 730 c-440 439 -755 745 -789 768 -136 89 -311 129 -463
106z"/>
</g>
</svg>
