<?xml version="1.0" standalone="no"?>
<!DOCTYPE svg PUBLIC "-//W3C//DTD SVG 20010904//EN"
 "http://www.w3.org/TR/2001/REC-SVG-20010904/DTD/svg10.dtd">
<svg version="1.0" xmlns="http://www.w3.org/2000/svg"
 width="3294.000000pt" height="3294.000000pt" viewBox="0 0 3294.000000 3294.000000"
 preserveAspectRatio="xMidYMid meet">
<metadata>
Created by potrace 1.14, written by Peter Selinger 2001-2017
</metadata>
<g transform="translate(0.000000,3294.000000) scale(0.100000,-0.100000)"
fill="#000000" stroke="none">
<path d="M19684 27631 c-40 -11 -96 -32 -125 -47 -30 -14 -448 -255 -929 -534
-801 -464 -4512 -2588 -9765 -5588 l-2060 -1177 -85 -85 c-69 -68 -94 -102
-127 -170 -76 -156 -71 -42 -78 -1905 -5 -1280 -4 -1690 5 -1750 31 -202 140
-372 309 -479 36 -23 546 -312 1133 -641 l1067 -598 4 -1046 c3 -1171 -3
-1077 78 -1241 49 -97 156 -212 251 -268 337 -199 772 -76 952 268 74 141 70
101 76 848 l5 672 1170 -657 c817 -459 1194 -665 1251 -685 161 -56 346 -46
499 27 38 19 394 220 790 448 l720 414 5 -2131 5 -2131 23 -65 c42 -117 83
-182 172 -271 69 -70 101 -94 170 -128 113 -54 194 -74 310 -74 301 0 555 190
657 493 17 53 18 158 23 2574 l5 2519 410 234 c226 129 436 254 468 279 32 25
65 48 73 51 12 4 14 -306 17 -2133 3 -2407 -5 -2174 80 -2338 209 -403 759
-488 1077 -167 84 86 129 155 168 263 l27 73 3 2545 2 2545 481 275 c265 151
485 276 490 278 5 2 10 -931 11 -2135 l3 -2138 31 -86 c62 -174 178 -305 339
-385 117 -58 211 -78 335 -71 176 10 327 76 449 198 79 79 132 165 169 274
l27 80 3 2530 2 2530 478 278 c263 152 482 277 485 277 4 0 8 -962 9 -2137 3
-2022 4 -2141 21 -2198 75 -251 269 -436 515 -491 56 -12 102 -15 181 -11 184
9 315 68 446 201 93 93 145 184 175 302 20 76 20 122 20 2595 l0 2518 490 280
490 280 0 -2123 c0 -2084 0 -2124 20 -2200 111 -435 596 -645 990 -428 85 46
216 177 262 262 20 36 47 97 60 135 l23 70 3 2531 2 2532 243 138 c133 75 267
154 298 175 84 56 171 158 218 252 76 154 71 16 71 1923 0 1670 0 1713 -20
1788 -11 42 -36 108 -56 147 -40 76 -143 194 -208 238 -22 15 -525 290 -1116
611 -870 471 -1433 787 -2949 1653 -1231 703 -1898 1078 -1945 1095 -100 34
-280 41 -382 13z m4001 -3618 c319 -173 584 -318 588 -322 4 -4 -2399 -1391
-5340 -3081 -2941 -1691 -5474 -3147 -5628 -3235 l-280 -162 -931 516 c-1360
754 -3527 1993 -3506 2005 128 69 10156 5807 10622 6078 l645 374 1625 -929
c894 -511 1886 -1071 2205 -1244z m1315 -2169 l0 -675 -112 113 c-123 123
-279 253 -373 310 -126 76 -286 109 -431 89 -240 -34 -427 -170 -530 -386 -89
-185 -84 -411 12 -601 42 -85 111 -165 208 -242 39 -31 98 -83 131 -114 51
-50 57 -60 45 -72 -17 -15 -1118 -646 -1129 -646 -3 0 -21 23 -40 51 -142 209
-475 520 -648 604 -288 141 -646 57 -838 -197 -96 -126 -138 -254 -138 -413 0
-217 87 -397 260 -537 111 -89 205 -180 196 -189 -18 -16 -1116 -649 -1123
-647 -4 2 -33 37 -64 78 -91 121 -210 251 -318 346 -265 235 -394 298 -608
297 -165 0 -299 -45 -419 -141 -259 -208 -334 -552 -185 -848 45 -91 107 -160
239 -268 108 -90 170 -155 157 -167 -12 -13 -1116 -642 -1132 -646 -10 -2 -40
30 -85 89 -86 115 -298 329 -425 430 -178 142 -304 192 -480 193 -129 0 -188
-14 -309 -72 -173 -83 -308 -250 -358 -443 -22 -86 -22 -244 1 -330 41 -154
121 -272 259 -384 94 -76 194 -172 186 -180 -2 -2 -152 -88 -332 -191 -181
-103 -347 -202 -370 -221 -67 -53 -407 -248 -417 -238 -4 5 -43 56 -86 114
-153 205 -460 486 -611 559 -220 108 -480 91 -681 -43 -186 -123 -302 -341
-302 -566 0 -214 96 -403 278 -549 114 -91 219 -198 207 -210 -6 -5 -215 -126
-465 -270 l-455 -260 -3 831 c-2 659 0 834 10 840 81 49 11265 6477 11271
6477 4 1 7 -303 7 -675z m-15775 -4061 c732 -418 1734 -983 2228 -1257 l897
-497 0 -835 c0 -484 -4 -834 -9 -832 -5 2 -1011 565 -2235 1253 l-2226 1250 0
843 c0 464 3 841 8 839 4 -3 606 -346 1337 -764z"/>
</g>
</svg>
