
        <svg xmlns="http://www.w3.org/2000/svg" xmlns:xlink="http://www.w3.org/1999/xlink" version="1.1" width="3000" 
        height="3375" viewBox="0 -187.5 3000 3375">
			
			<g transform="scale(18.75) translate(10, 10)">
				<defs id="SvgjsDefs9319"><linearGradient id="SvgjsLinearGradient9326"><stop id="SvgjsStop9327" stop-color="#fbb040" offset="0"></stop><stop id="SvgjsStop9328" stop-color="#f9ed32" offset="1"></stop></linearGradient><linearGradient id="SvgjsLinearGradient9329"><stop id="SvgjsStop9330" stop-color="#834f2a" offset="0"></stop><stop id="SvgjsStop9331" stop-color="#dba173" offset="0.5"></stop><stop id="SvgjsStop9332" stop-color=" #834F2A" offset="1"></stop></linearGradient></defs><g id="SvgjsG9320" featureKey="rootContainer" transform="matrix(1,0,0,1,0,-10)" fill="url(#SvgjsLinearGradient9326)"><rect width="140" height="150" rx="10"></rect></g><g id="SvgjsG9321" featureKey="e7LhAk-0" transform="matrix(3.5714285714285716,0,0,3.5714285714285716,12.857142857142858,7.857142857142857)" fill="url(#SvgjsLinearGradient9329)"><g xmlns="http://www.w3.org/2000/svg"><path d="M29,12h-1.6933594c-0.140625-0.4003906-0.3017578-0.7905273-0.4814453-1.168457l1.1953125-1.1958008   c0.390625-0.390625,0.390625-1.0234375,0-1.4140625l-4.2421875-4.2421875c-0.390625-0.390625-1.0234375-0.390625-1.4140625,0   l-1.1953125,1.1953125C20.7900391,4.9951172,20.4003906,4.8339844,20,4.6933594V3c0-0.5522461-0.4472656-1-1-1h-6   c-0.5522461,0-1,0.4477539-1,1v1.6933594c-0.3999023,0.140625-0.7905273,0.3017578-1.168457,0.4814453L9.6357422,3.9794922   c-0.390625-0.390625-1.0234375-0.390625-1.4140625,0L3.9794922,8.2216797c-0.390625,0.390625-0.390625,1.0234375,0,1.4140625   l1.1953125,1.1958008C4.9951172,11.2094727,4.8339844,11.6000977,4.6933594,12H3c-0.5522461,0-1,0.4477539-1,1v6   c0,0.5522461,0.4477539,1,1,1h1.6933594c0.140625,0.3999023,0.3017578,0.7905273,0.4814453,1.168457l-1.1953125,1.1958008   c-0.390625,0.390625-0.390625,1.0234375,0,1.4140625l4.2421875,4.2421875c0.390625,0.390625,1.0234375,0.390625,1.4140625,0   l1.1958008-1.1953125C11.2094727,27.0048828,11.6000977,27.1660156,12,27.3066406V29c0,0.5522461,0.4477539,1,1,1h6   c0.5527344,0,1-0.4477539,1-1v-1.6933594c0.4003906-0.140625,0.7900391-0.3017578,1.1689453-0.4814453l1.1953125,1.1953125   c0.390625,0.390625,1.0234375,0.390625,1.4140625,0l4.2421875-4.2421875c0.1875-0.1875,0.2929688-0.4418945,0.2929688-0.7070313   s-0.1054688-0.5195313-0.2929688-0.7070313l-1.1953125-1.1958008C27.0048828,20.7905273,27.1660156,20.4003906,27.3066406,20H29   c0.5527344,0,1-0.4477539,1-1v-6C30,12.4477539,29.5527344,12,29,12z M28,14v1h-9.3818359l2-4h4.0640259   c0.0166016,0.0428467,0.0234985,0.0878906,0.0463257,0.1289063c0.3720703,0.6645508,0.6699219,1.3857422,0.8847656,2.144043   C25.7353516,13.703125,26.1279297,14,26.5751953,14H28z M14.6181641,15l2-4h1.7636719l-2,4H14.6181641z M8.9287109,6.1005859   l1.0048828,1.0043945c0.3154297,0.3154297,0.8046875,0.3842773,1.1948242,0.1660156   c0.6650391-0.3720703,1.3867188-0.6694336,2.1445313-0.8842773C13.703125,6.2646484,14,5.8720703,14,5.4248047V4h4v1.4248047   c0,0.4472656,0.296875,0.8398438,0.7275391,0.9619141c0.7578125,0.2148438,1.4785156,0.512207,2.1435547,0.8842773   C21.2617188,7.4892578,21.75,7.4213867,22.0664063,7.1049805l1.0048828-1.0043945l2.828125,2.828125L25.828125,9H6.171814   l-0.071228-0.0712891L8.9287109,6.1005859z M5.4248047,14c0.4472656,0,0.8398438-0.296875,0.9619141-0.7270508   c0.2148438-0.7578125,0.512207-1.4794922,0.8842773-2.1445313C7.2938232,11.0875854,7.3006592,11.0426636,7.3172607,11h7.0645752   l-2,4H4v-1H5.4248047z M28,18h-1.4248047c-0.4472656,0-0.8398438,0.296875-0.9619141,0.7270508   c-0.2148438,0.7583008-0.5126953,1.4794922-0.8847656,2.144043c-0.2177734,0.390625-0.1503906,0.8789063,0.1660156,1.1953125   l1.0048828,1.0048828l-2.828125,2.828125l-1.0048828-1.0043945C21.75,24.578125,21.2617188,24.5112305,20.8710938,24.7290039   c-0.6650391,0.3720703-1.3857422,0.6694336-2.1435547,0.8842773C18.296875,25.7353516,18,26.1279297,18,26.5751953V28h-4   v-1.4248047c0-0.4472656-0.296875-0.8398438-0.7270508-0.9619141c-0.7578125-0.2148438-1.4794922-0.512207-2.1445313-0.8842773   c-0.3901367-0.21875-0.8793945-0.1499023-1.1948242,0.1660156l-1.0048828,1.0043945l-2.828125-2.828125l1.0043945-1.0048828   C7.4213867,21.75,7.4892578,21.262207,7.2709961,20.871582c-0.3720703-0.6650391-0.6694336-1.3867188-0.8842773-2.1445313   C6.2646484,18.296875,5.8720703,18,5.4248047,18H4v-1h24V18z"></path><circle cx="8" cy="13" r="1"></circle><circle cx="11" cy="13" r="1"></circle><path d="M12.7070313,18.2929688c-0.390625-0.390625-1.0234375-0.390625-1.4140625,0l-2,2   c-0.390625,0.390625-0.390625,1.0234375,0,1.4140625l2,2C11.4882813,23.9023438,11.7441406,24,12,24   s0.5117188-0.0976563,0.7070313-0.2929688c0.390625-0.390625,0.390625-1.0234375,0-1.4140625L11.4140625,21l1.2929688-1.2929688   C13.0976563,19.3164063,13.0976563,18.6835938,12.7070313,18.2929688z"></path><path d="M19.2929688,23.7070313C19.4882813,23.9023438,19.7441406,24,20,24s0.5117188-0.0976563,0.7070313-0.2929688l2-2   c0.390625-0.390625,0.390625-1.0234375,0-1.4140625l-2-2c-0.390625-0.390625-1.0234375-0.390625-1.4140625,0   s-0.390625,1.0234375,0,1.4140625L20.5859375,21l-1.2929688,1.2929688   C18.9023438,22.6835938,18.9023438,23.3164063,19.2929688,23.7070313z"></path><path d="M16.1054688,18.5527344l-2,4c-0.2470703,0.4941406-0.046875,1.0947266,0.4472656,1.3417969   C14.6962891,23.9663086,14.8491211,24,14.9990234,24c0.3671875,0,0.7202148-0.2021484,0.8955078-0.5527344l2-4   c0.2470703-0.4941406,0.046875-1.0947266-0.4472656-1.3417969C16.953125,17.8579102,16.3525391,18.0581055,16.1054688,18.5527344z"></path></g></g><g id="SvgjsG9322" featureKey="Qg0WB5-0" transform="matrix(1,0,0,1,70,135)" fill="#111111"><path d=""></path></g>
			</g>
		</svg>
	